# xmcd CD database file
#
# Track frame offsets:
#	150
#	22032
#	45090
#	70352
#	102462
#
# Disc length: 1656 seconds
#
# Revision: 1
# Processed by: cddbd v1.5PL3 Copyright (c) Steve Scherf et al.
# Submitted via: CDex 1.51
#
DISCID=3b067605
DTITLE=EARTH - time after time HIP HOP SOUL Version
DYEAR=2000
DGENRE=JPop
TTITLE0=time after time -HIP HOP SOUL Version-
TTITLE1=time after time -Beat Gallery Remix-
TTITLE2=time after time -KREVA Remix feat MCU-
TTITLE3=time after time -After Time After Time X Times To Fade Remix-
TTITLE4=time after time -HIP HOP SOUL Version-  Instrumental
EXTD=YEAR: 2000
EXTT0=
EXTT1=
EXTT2=
EXTT3=
EXTT4=
PLAYORDER=
